{"title":"The.Marine.3.Homefront.2013 BRRip XViD juggs","uid":8196137,"size":751177803,"categoryP":"video","categoryS":"movies","magnet":"?xt=urn:btih:bceb84840d6bbd2f59b304c6fe8038c360b6284c&amp;dn=The.Marine.3.Homefront.2013+BRRip+XViD+juggs&amp;tr=udp%3A%2F%2Ftracker.openbittorrent.com%3A80&amp;tr=udp%3A%2F%2Fopen.demonii.com%3A1337&amp;tr=udp%3A%2F%2Ftracker.coppersurfer.tk%3A6969&amp;tr=udp%3A%2F%2Fexodus.desync.com%3A6969","seeders":3,"leechers":0,"uploader":"juggs99","files":3,"time":1361917120,"description":" &lt;a href=&quot;http://www.imdb.com/title/tt2334841/&quot; rel=&quot;nofollow&quot; target=&quot;_NEW&quot;&gt;http://www.imdb.com/title/tt2334841/&lt;/a&gt;\n\nSource : CHD\n\n\nFormat                                   : AVI\nFormat/Info                              : Audio Video Interleave\nFile size                                : 705 MiB\nDuration                                 : 1h 30mn\nOverall bit rate                         : 1 093 Kbps\nWriting library                          : VirtualDub build 32842/release\n\nVideo\nID                                       : 0\nFormat                                   : MPEG-4 Visual\nFormat profile                           : Advanced Simple@L5\nFormat settings, BVOP                    : 4\nFormat settings, QPel                    : No\nFormat settings, GMC                     : No warppoints\nFormat settings, Matrix                  : Default (H.263)\nMuxing mode                              : Packed bitstream\nCodec ID                                 : XVID\nCodec ID/Hint                            : XviD\nDuration                                 : 1h 30mn\nBit rate                                 : 955 Kbps\nWidth                                    : 640 pixels\nHeight                                   : 352 pixels\nDisplay aspect ratio                     : 16:9\nFrame rate                               : 23.976 fps\nColor space                              : YUV\nChroma subsampling                       : 4:2:0\nBit depth                                : 8 bits\nScan type                                : Progressive\nCompression mode                         : Lossy\nBits/(Pixel*Frame)                       : 0.177\nStream size                              : 616 MiB (87%)\nWriting library                          : XviD 64\n\nAudio\nID                                       : 1\nFormat                                   : MPEG Audio\nFormat version                           : Version 1\nFormat profile                           : Layer 3\nCodec ID                                 : 55\nCodec ID/Hint                            : MP3\nDuration                                 : 1h 30mn\nBit rate mode                            : Constant\nBit rate                                 : 128 Kbps\nChannel(s)                               : 2 channels\nSampling rate                            : 44.1 KHz\nCompression mode                         : Lossy\nStream size                              : 82.5 MiB (12%)\nAlignment                                : Split accross interleaves\nInterleave, duration                     : 42 ms (1.00 video frame)\nInterleave, preload duration             : 500 ms\nWriting library                          : LAME3.99r\nEncoding settings                        : -m s -V 4 -q 3 -lowpass 17 -b 128\n\n\nPlot\nA Marine must do whatever it takes to save his kidnapped niece and stop a terrorist attack masterminded by\n\n &lt;a href=&quot;\nhttp://www.shotpix.com/images/56315750405871967594.png&quot; rel=&quot;nofollow&quot; target=&quot;_NEW&quot;&gt;\nhttp://www.shotpix.com/images/56315750405871967594.png&lt;/a&gt; &lt;a href=&quot;\nhttp://www.shotpix.com/images/99963818309669113291.png&quot; rel=&quot;nofollow&quot; target=&quot;_NEW&quot;&gt;\nhttp://www.shotpix.com/images/99963818309669113291.png&lt;/a&gt; &lt;a href=&quot;\nhttp://www.shotpix.com/images/99776478759700001256.png&quot; rel=&quot;nofollow&quot; target=&quot;_NEW&quot;&gt;\nhttp://www.shotpix.com/images/99776478759700001256.png&lt;/a&gt; &lt;a href=&quot;\nhttp://www.shotpix.com/images/90498920510701237726.png&quot; rel=&quot;nofollow&quot; target=&quot;_NEW&quot;&gt;\nhttp://www.shotpix.com/images/90498920510701237726.png&lt;/a&gt;\n","torrent":{"xt":"urn:btih:bceb84840d6bbd2f59b304c6fe8038c360b6284c","amp;dn":"The.Marine.3.Homefront.2013+BRRip+XViD+juggs","amp;tr":["udp%3A%2F%2Ftracker.openbittorrent.com%3A80","udp%3A%2F%2Fopen.demonii.com%3A1337","udp%3A%2F%2Ftracker.coppersurfer.tk%3A6969","udp%3A%2F%2Fexodus.desync.com%3A6969"],"infoHash":"bceb84840d6bbd2f59b304c6fe8038c360b6284c","infoHashBuffer":{"type":"Buffer","data":[188,235,132,132,13,107,189,47,89,179,4,198,254,128,56,195,96,182,40,76]},"announce":[],"urlList":[]}}